# xmcd CD database file generated by Grip 3.3.1
# 
# Track frame offsets:
#       150
#       5778
#       14060
#       32225
#       51252
#       69288
#       96806
#       115582
#       135433
#       159458
#       174213
#       212091
# 
# Disc length: 3111 seconds
# 
# Revision: 3
# Processed by: cddbd v1.5.2PL0 Copyright (c) Steve Scherf et al.
# Submitted via: Grip 3.3.1
# 
DISCID=9a0c250c
DTITLE=Carcass - Surgical Steel
DYEAR=2013
DGENRE=Death Metal
TTITLE0=1985
TTITLE1=Thrasher's Abattoir
TTITLE2=Cadaver Pouch Conveyor System
TTITLE3=A Congealed Clot Of Blood
TTITLE4=The Master Butcher's Apron
TTITLE5=Noncompliance To ASTM F 899-12 Standard
TTITLE6=The Granulating Dark Satanic Mills
TTITLE7=Unfit For Human Consumption
TTITLE8=316L Grade Surgical Steel
TTITLE9=Captive Bolt Pistol
TTITLE10=Mount Of Execution
TTITLE11=Intensive Battery Brooding
EXTD=YEAR: 2013
EXTT0=
EXTT1=
EXTT2=
EXTT3=
EXTT4=
EXTT5=
EXTT6=
EXTT7=
EXTT8=
EXTT9=
EXTT10=
EXTT11=
PLAYORDER=
